<svg width="22" height="14" viewBox="0 0 22 14" fill="none" xmlns="http://www.w3.org/2000/svg">
<path d="M13.0625 2.87502C13.0625 2.69269 13.1349 2.51782 13.2639 2.38889C13.3928 2.25996 13.5677 2.18752 13.75 2.18752H21.3125C21.4948 2.18752 21.6697 2.25996 21.7986 2.38889C21.9276 2.51782 22 2.69269 22 2.87502C22 3.05736 21.9276 3.23223 21.7986 3.36116C21.6697 3.49009 21.4948 3.56252 21.3125 3.56252H13.75C13.5677 3.56252 13.3928 3.49009 13.2639 3.36116C13.1349 3.23223 13.0625 3.05736 13.0625 2.87502ZM21.3125 6.31252H13.75C13.5677 6.31252 13.3928 6.38496 13.2639 6.51389C13.1349 6.64282 13.0625 6.81769 13.0625 7.00002C13.0625 7.18236 13.1349 7.35723 13.2639 7.48616C13.3928 7.61509 13.5677 7.68752 13.75 7.68752H21.3125C21.4948 7.68752 21.6697 7.61509 21.7986 7.48616C21.9276 7.35723 22 7.18236 22 7.00002C22 6.81769 21.9276 6.64282 21.7986 6.51389C21.6697 6.38496 21.4948 6.31252 21.3125 6.31252ZM21.3125 10.4375H15.8125C15.6302 10.4375 15.4553 10.51 15.3264 10.6389C15.1974 10.7678 15.125 10.9427 15.125 11.125C15.125 11.3074 15.1974 11.4822 15.3264 11.6112C15.4553 11.7401 15.6302 11.8125 15.8125 11.8125H21.3125C21.4948 11.8125 21.6697 11.7401 21.7986 11.6112C21.9276 11.4822 22 11.3074 22 11.125C22 10.9427 21.9276 10.7678 21.7986 10.6389C21.6697 10.51 21.4948 10.4375 21.3125 10.4375ZM13.041 12.3281C13.0635 12.4156 13.0685 12.5066 13.0558 12.5961C13.0431 12.6855 13.0129 12.7715 12.9669 12.8492C12.921 12.9269 12.8601 12.9948 12.7879 13.0491C12.7157 13.1033 12.6335 13.1427 12.546 13.1652C12.49 13.1803 12.4322 13.1878 12.3741 13.1875C12.2217 13.1876 12.0735 13.137 11.9529 13.0436C11.8324 12.9503 11.7463 12.8195 11.7081 12.6719C11.1788 10.6146 9.10079 9.06252 6.87415 9.06252C4.64751 9.06252 2.56954 10.6137 2.04016 12.6719C1.99458 12.8485 1.88069 12.9998 1.72356 13.0925C1.56642 13.1852 1.37891 13.2116 1.20227 13.166C1.02563 13.1205 0.874339 13.0066 0.781669 12.8494C0.689 12.6923 0.662548 12.5048 0.708132 12.3281C1.18852 10.4624 2.58501 8.95166 4.35704 8.20315C3.67472 7.67761 3.17401 6.95168 2.92513 6.12717C2.67625 5.30267 2.69169 4.42094 2.96927 3.60565C3.24686 2.79036 3.77266 2.0824 4.47296 1.58107C5.17325 1.07973 6.0129 0.810154 6.87415 0.810154C7.7354 0.810154 8.57505 1.07973 9.27534 1.58107C9.97563 2.0824 10.5014 2.79036 10.779 3.60565C11.0566 4.42094 11.072 5.30267 10.8232 6.12717C10.5743 6.95168 10.0736 7.67761 9.39126 8.20315C11.1641 8.95166 12.5606 10.4624 13.041 12.3281ZM6.87501 7.68752C7.41891 7.68752 7.95059 7.52624 8.40282 7.22406C8.85506 6.92189 9.20753 6.4924 9.41568 5.9899C9.62382 5.48741 9.67828 4.93447 9.57217 4.40102C9.46606 3.86758 9.20415 3.37757 8.81955 2.99298C8.43496 2.60838 7.94495 2.34647 7.41151 2.24036C6.87806 2.13425 6.32512 2.18871 5.82263 2.39685C5.32013 2.605 4.89064 2.95747 4.58847 3.40971C4.28629 3.86194 4.12501 4.39362 4.12501 4.93752C4.12501 5.66687 4.41474 6.36634 4.93046 6.88207C5.44619 7.39779 6.14566 7.68752 6.87501 7.68752Z" fill="#A2195E"/>
</svg>

