<svg width="34" height="34" viewBox="0 0 34 34" fill="none" xmlns="http://www.w3.org/2000/svg">
<rect x="34" width="34" height="34" rx="17" transform="rotate(90 34 0)" fill="#F4F4F4"/>
<path d="M8.22826 14.4157C8.15969 14.4842 8.10529 14.5655 8.06818 14.6551C8.03106 14.7446 8.01196 14.8406 8.01196 14.9375C8.01196 15.0344 8.03106 15.1304 8.06818 15.2199C8.10529 15.3094 8.15969 15.3908 8.22826 15.4593L12.3532 19.5842C12.4916 19.7226 12.6793 19.8004 12.875 19.8004C13.0707 19.8004 13.2584 19.7226 13.3968 19.5842C13.5351 19.4459 13.6129 19.2582 13.6129 19.0625C13.6129 18.8668 13.5351 18.6791 13.3968 18.5407L13.3968 18.5407L10.5302 15.675L16.9999 15.675C18.9917 15.6772 20.9012 16.4695 22.3096 17.8779C23.718 19.2862 24.5102 21.1958 24.5125 23.1875C24.5125 23.3831 24.5902 23.5707 24.7285 23.709C24.8668 23.8473 25.0544 23.925 25.25 23.925C25.4456 23.925 25.6332 23.8473 25.7715 23.709C25.9098 23.5707 25.9875 23.3831 25.9875 23.1875L25.9875 23.1874C25.985 20.8046 25.0373 18.5201 23.3524 16.8351C21.6674 15.1502 19.3829 14.2025 17.0001 14.2L17 14.2L10.5302 14.2L13.3968 11.3343L13.3968 11.3342C13.4653 11.2657 13.5196 11.1844 13.5567 11.0949C13.5938 11.0053 13.6129 10.9094 13.6129 10.8125C13.6129 10.6168 13.5351 10.4291 13.3968 10.2907C13.3282 10.2222 13.2469 10.1679 13.1574 10.1308C13.0679 10.0937 12.9719 10.0746 12.875 10.0746C12.7781 10.0746 12.6821 10.0937 12.5926 10.1308C12.5031 10.1679 12.4218 10.2222 12.3532 10.2907L8.22826 14.4157ZM8.22826 14.4157L8.26359 14.4511M8.22826 14.4157L8.22824 14.4157L8.26359 14.4511M8.26359 14.4511C8.19967 14.5149 8.14896 14.5908 8.11436 14.6742C8.07977 14.7577 8.06196 14.8471 8.06196 14.9375C8.06196 15.0278 8.07977 15.1173 8.11436 15.2008C8.14896 15.2842 8.19967 15.36 8.26359 15.4239L13.3614 11.2989C13.4253 11.235 13.476 11.1592 13.5105 11.0757C13.5451 10.9923 13.5629 10.9028 13.5629 10.8125C13.5629 10.63 13.4904 10.4551 13.3614 10.3261C13.2975 10.2622 13.2217 10.2115 13.1382 10.177C13.0548 10.1424 12.9653 10.1246 12.875 10.1246C12.7847 10.1246 12.6952 10.1424 12.6118 10.177C12.5283 10.2115 12.4525 10.2622 12.3886 10.3261L8.26359 14.4511Z" fill="#141414" stroke="#141414" stroke-width="0.1"/>
</svg>

