<svg width="18" height="17" viewBox="0 0 18 17" fill="none" xmlns="http://www.w3.org/2000/svg">
<path d="M15.875 2.81241H13.4928L12.3215 1.05585C12.2587 0.961789 12.1737 0.884661 12.0741 0.831296C11.9744 0.777931 11.8631 0.749976 11.75 0.749908H6.25C6.13693 0.749976 6.02562 0.777931 5.92594 0.831296C5.82625 0.884661 5.74127 0.961789 5.67852 1.05585L4.50633 2.81241H2.125C1.57799 2.81241 1.05339 3.02971 0.666592 3.4165C0.279799 3.80329 0.0625 4.3279 0.0625 4.87491V14.4999C0.0625 15.0469 0.279799 15.5715 0.666592 15.9583C1.05339 16.3451 1.57799 16.5624 2.125 16.5624H15.875C16.422 16.5624 16.9466 16.3451 17.3334 15.9583C17.7202 15.5715 17.9375 15.0469 17.9375 14.4999V4.87491C17.9375 4.3279 17.7202 3.80329 17.3334 3.4165C16.9466 3.02971 16.422 2.81241 15.875 2.81241ZM16.5625 14.4999C16.5625 14.6822 16.4901 14.8571 16.3611 14.986C16.2322 15.115 16.0573 15.1874 15.875 15.1874H2.125C1.94266 15.1874 1.7678 15.115 1.63886 14.986C1.50993 14.8571 1.4375 14.6822 1.4375 14.4999V4.87491C1.4375 4.69257 1.50993 4.5177 1.63886 4.38877C1.7678 4.25984 1.94266 4.18741 2.125 4.18741H4.875C4.98822 4.18748 5.0997 4.1596 5.19954 4.10622C5.29939 4.05285 5.38451 3.97565 5.44734 3.88147L6.61781 2.12491H11.3813L12.5527 3.88147C12.6155 3.97565 12.7006 4.05285 12.8005 4.10622C12.9003 4.1596 13.0118 4.18748 13.125 4.18741H15.875C16.0573 4.18741 16.2322 4.25984 16.3611 4.38877C16.4901 4.5177 16.5625 4.69257 16.5625 4.87491V14.4999ZM9 5.56241C8.25214 5.56241 7.52107 5.78417 6.89925 6.19966C6.27743 6.61515 5.79277 7.2057 5.50658 7.89664C5.22039 8.58757 5.14551 9.34785 5.29141 10.0813C5.43731 10.8148 5.79743 11.4886 6.32625 12.0174C6.85507 12.5462 7.52882 12.9064 8.26231 13.0523C8.9958 13.1982 9.75609 13.1233 10.447 12.8371C11.138 12.5509 11.7285 12.0662 12.144 11.4444C12.5595 10.8226 12.7812 10.0915 12.7812 9.34366C12.7801 8.34116 12.3814 7.38004 11.6725 6.67117C10.9636 5.96229 10.0025 5.56355 9 5.56241ZM9 11.7499C8.52409 11.7499 8.05886 11.6088 7.66316 11.3444C7.26745 11.08 6.95904 10.7042 6.77691 10.2645C6.59479 9.82481 6.54714 9.34099 6.63999 8.87422C6.73283 8.40746 6.962 7.9787 7.29852 7.64218C7.63504 7.30566 8.0638 7.07649 8.53056 6.98364C8.99733 6.8908 9.48115 6.93845 9.92083 7.12057C10.3605 7.3027 10.7363 7.61111 11.0007 8.00682C11.2651 8.40252 11.4062 8.86775 11.4062 9.34366C11.4062 9.98184 11.1527 10.5939 10.7015 11.0451C10.2502 11.4964 9.63818 11.7499 9 11.7499Z" fill="#A2195E"/>
</svg>

