<svg width="18" height="18" viewBox="0 0 18 18" fill="none" xmlns="http://www.w3.org/2000/svg">
<path d="M15.875 0.750031H4.875C4.51033 0.750031 4.16059 0.894896 3.90273 1.15276C3.64487 1.41062 3.5 1.76036 3.5 2.12503V3.50003H2.125C1.76033 3.50003 1.41059 3.6449 1.15273 3.90276C0.894866 4.16062 0.75 4.51036 0.75 4.87503V15.875C0.75 16.2397 0.894866 16.5894 1.15273 16.8473C1.41059 17.1052 1.76033 17.25 2.125 17.25H13.125C13.4897 17.25 13.8394 17.1052 14.0973 16.8473C14.3551 16.5894 14.5 16.2397 14.5 15.875V14.5H15.875C16.2397 14.5 16.5894 14.3552 16.8473 14.0973C17.1051 13.8394 17.25 13.4897 17.25 13.125V2.12503C17.25 1.76036 17.1051 1.41062 16.8473 1.15276C16.5894 0.894896 16.2397 0.750031 15.875 0.750031ZM4.875 2.12503H15.875V8.08737L14.4398 6.65222C14.182 6.39455 13.8324 6.24981 13.4679 6.24981C13.1034 6.24981 12.7538 6.39455 12.4959 6.65222L6.02398 13.125H4.875V2.12503ZM13.125 15.875H2.125V4.87503H3.5V13.125C3.5 13.4897 3.64487 13.8394 3.90273 14.0973C4.16059 14.3552 4.51033 14.5 4.875 14.5H13.125V15.875ZM15.875 13.125H7.96875L13.4688 7.62503L15.875 10.0313V13.125ZM8.3125 7.62503C8.72042 7.62503 9.11919 7.50407 9.45836 7.27744C9.79754 7.05081 10.0619 6.72869 10.218 6.35182C10.3741 5.97494 10.415 5.56024 10.3354 5.16016C10.2558 4.76007 10.0594 4.39257 9.77091 4.10412C9.48246 3.81568 9.11496 3.61924 8.71487 3.53966C8.31479 3.46008 7.90009 3.50092 7.52322 3.65703C7.14634 3.81313 6.82422 4.07749 6.59759 4.41667C6.37096 4.75584 6.25 5.15461 6.25 5.56253C6.25 6.10954 6.4673 6.63414 6.85409 7.02094C7.24089 7.40773 7.76549 7.62503 8.3125 7.62503ZM8.3125 4.87503C8.44847 4.87503 8.5814 4.91535 8.69445 4.9909C8.80751 5.06644 8.89563 5.17381 8.94767 5.29944C8.9997 5.42506 9.01332 5.56329 8.98679 5.69666C8.96026 5.83002 8.89478 5.95252 8.79864 6.04867C8.70249 6.14481 8.57999 6.21029 8.44662 6.23682C8.31326 6.26335 8.17503 6.24973 8.04941 6.1977C7.92378 6.14566 7.81641 6.05754 7.74086 5.94449C7.66532 5.83143 7.625 5.69851 7.625 5.56253C7.625 5.38019 7.69743 5.20533 7.82636 5.07639C7.9553 4.94746 8.13016 4.87503 8.3125 4.87503Z" fill="#A2195E"/>
</svg>

