<svg width="24" height="17" viewBox="0 0 24 17" fill="none" xmlns="http://www.w3.org/2000/svg">
<path d="M21.8421 1.00005H2.15789C1.51841 1.00005 1 1.51845 1 2.15794V14.8948C1 15.5343 1.51841 16.0527 2.15789 16.0527H21.8421C22.4816 16.0527 23 15.5343 23 14.8948V2.15794C23 1.51845 22.4816 1.00005 21.8421 1.00005Z" stroke="#A2195E" stroke-width="1.4"/>
<mask id="path-2-outside-1_26_86" maskUnits="userSpaceOnUse" x="3.3158" y="5.63161" width="17" height="7" fill="black">
<rect fill="white" x="3.3158" y="5.63161" width="17" height="7"/>
<path d="M6.08632 5.73687C6.63088 5.73687 7.08281 5.91933 7.44211 6.28424C7.80702 6.64354 7.98948 7.09266 7.98948 7.63161C7.98948 8.16494 7.80702 8.61407 7.44211 8.97898C7.08281 9.34389 6.63088 9.52635 6.08632 9.52635H4.73053V11.6316H3.94737V5.73687H6.08632ZM6.08632 8.79372C6.41194 8.79372 6.68141 8.68424 6.89474 8.46529C7.10808 8.24073 7.21474 7.96284 7.21474 7.63161C7.21474 7.29477 7.10808 7.01687 6.89474 6.79793C6.68141 6.57898 6.41194 6.46951 6.08632 6.46951H4.73053V8.79372H6.08632ZM12.9542 11.6316L12.4742 10.3095H9.82152L9.34152 11.6316H8.50784L10.7057 5.73687H11.5899L13.7878 11.6316H12.9542ZM10.091 9.57687H12.2047L11.1436 6.67161L10.091 9.57687ZM18.9043 5.73687H19.6874V11.6316H19.0559L16.0243 7.2274V11.6316H15.2411V5.73687H15.8727L18.9043 10.1327V5.73687Z"/>
</mask>
<path d="M6.08632 5.73687C6.63088 5.73687 7.08281 5.91933 7.44211 6.28424C7.80702 6.64354 7.98948 7.09266 7.98948 7.63161C7.98948 8.16494 7.80702 8.61407 7.44211 8.97898C7.08281 9.34389 6.63088 9.52635 6.08632 9.52635H4.73053V11.6316H3.94737V5.73687H6.08632ZM6.08632 8.79372C6.41194 8.79372 6.68141 8.68424 6.89474 8.46529C7.10808 8.24073 7.21474 7.96284 7.21474 7.63161C7.21474 7.29477 7.10808 7.01687 6.89474 6.79793C6.68141 6.57898 6.41194 6.46951 6.08632 6.46951H4.73053V8.79372H6.08632ZM12.9542 11.6316L12.4742 10.3095H9.82152L9.34152 11.6316H8.50784L10.7057 5.73687H11.5899L13.7878 11.6316H12.9542ZM10.091 9.57687H12.2047L11.1436 6.67161L10.091 9.57687ZM18.9043 5.73687H19.6874V11.6316H19.0559L16.0243 7.2274V11.6316H15.2411V5.73687H15.8727L18.9043 10.1327V5.73687Z" fill="#A2195E"/>
<path d="M7.44211 6.28424L7.37085 6.35441L7.37195 6.3555L7.44211 6.28424ZM7.44211 8.97898L7.3714 8.90827L7.37086 8.90882L7.44211 8.97898ZM4.73053 9.52635V9.42635H4.63053V9.52635H4.73053ZM4.73053 11.6316V11.7316H4.83053V11.6316H4.73053ZM3.94737 11.6316H3.84737V11.7316H3.94737V11.6316ZM3.94737 5.73687V5.63687H3.84737V5.73687H3.94737ZM6.89474 8.46529L6.96637 8.53509L6.96724 8.53417L6.89474 8.46529ZM6.89474 6.79793L6.82312 6.86771V6.86771L6.89474 6.79793ZM4.73053 6.46951V6.36951H4.63053V6.46951H4.73053ZM4.73053 8.79372H4.63053V8.89372H4.73053V8.79372ZM6.08632 5.83687C6.60598 5.83687 7.03164 6.00988 7.37086 6.3544L7.51337 6.21408C7.13399 5.82877 6.65579 5.63687 6.08632 5.63687V5.83687ZM7.37195 6.3555C7.71669 6.69493 7.88948 7.11789 7.88948 7.63161H8.08948C8.08948 7.06744 7.89736 6.59215 7.51227 6.21299L7.37195 6.3555ZM7.88948 7.63161C7.88948 8.13941 7.71687 8.5628 7.3714 8.90827L7.51282 9.04969C7.89718 8.66533 8.08948 8.19047 8.08948 7.63161H7.88948ZM7.37086 8.90882C7.03164 9.25334 6.60598 9.42635 6.08632 9.42635V9.62635C6.65579 9.62635 7.13399 9.43445 7.51337 9.04914L7.37086 8.90882ZM6.08632 9.42635H4.73053V9.62635H6.08632V9.42635ZM4.63053 9.52635V11.6316H4.83053V9.52635H4.63053ZM4.73053 11.5316H3.94737V11.7316H4.73053V11.5316ZM4.04737 11.6316V5.73687H3.84737V11.6316H4.04737ZM3.94737 5.83687H6.08632V5.63687H3.94737V5.83687ZM6.08632 8.89372C6.43695 8.89372 6.73289 8.7747 6.96637 8.53508L6.82312 8.39551C6.62993 8.59378 6.38692 8.69372 6.08632 8.69372V8.89372ZM6.96724 8.53417C7.19953 8.28965 7.31474 7.98652 7.31474 7.63161H7.11474C7.11474 7.93916 7.01662 8.19181 6.82224 8.39642L6.96724 8.53417ZM7.31474 7.63161C7.31474 7.2716 7.19983 6.96774 6.96637 6.72814L6.82312 6.86771C7.01633 7.066 7.11474 7.31793 7.11474 7.63161H7.31474ZM6.96637 6.72814C6.73289 6.48852 6.43695 6.36951 6.08632 6.36951V6.56951C6.38692 6.56951 6.62993 6.66944 6.82312 6.86771L6.96637 6.72814ZM6.08632 6.36951H4.73053V6.56951H6.08632V6.36951ZM4.63053 6.46951V8.79372H4.83053V6.46951H4.63053ZM4.73053 8.89372H6.08632V8.69372H4.73053V8.89372ZM12.9542 11.6316L12.8602 11.6657L12.8841 11.7316H12.9542V11.6316ZM12.4742 10.3095L12.5681 10.2754L12.5442 10.2095H12.4742V10.3095ZM9.82152 10.3095V10.2095H9.75144L9.72752 10.2754L9.82152 10.3095ZM9.34152 11.6316V11.7316H9.4116L9.43552 11.6657L9.34152 11.6316ZM8.50784 11.6316L8.41414 11.5967L8.36382 11.7316H8.50784V11.6316ZM10.7057 5.73687V5.63687H10.6363L10.612 5.70194L10.7057 5.73687ZM11.5899 5.73687L11.6836 5.70194L11.6594 5.63687H11.5899V5.73687ZM13.7878 11.6316V11.7316H13.9318L13.8815 11.5967L13.7878 11.6316ZM10.091 9.57687L9.99697 9.54281L9.9484 9.67687H10.091V9.57687ZM12.2047 9.57687V9.67687H12.3477L12.2986 9.54257L12.2047 9.57687ZM11.1436 6.67161L11.2376 6.6373L11.1433 6.37909L11.0496 6.63755L11.1436 6.67161ZM13.0481 11.5975L12.5681 10.2754L12.3802 10.3436L12.8602 11.6657L13.0481 11.5975ZM12.4742 10.2095H9.82152V10.4095H12.4742V10.2095ZM9.72752 10.2754L9.24752 11.5975L9.43552 11.6657L9.91552 10.3436L9.72752 10.2754ZM9.34152 11.5316H8.50784V11.7316H9.34152V11.5316ZM8.60153 11.6665L10.7994 5.77181L10.612 5.70194L8.41414 11.5967L8.60153 11.6665ZM10.7057 5.83687H11.5899V5.63687H10.7057V5.83687ZM11.4962 5.77181L13.6941 11.6665L13.8815 11.5967L11.6836 5.70194L11.4962 5.77181ZM13.7878 11.5316H12.9542V11.7316H13.7878V11.5316ZM10.091 9.67687H12.2047V9.47687H10.091V9.67687ZM12.2986 9.54257L11.2376 6.6373L11.0497 6.70592L12.1107 9.61118L12.2986 9.54257ZM11.0496 6.63755L9.99697 9.54281L10.185 9.61094L11.2376 6.70568L11.0496 6.63755ZM18.9043 5.73687V5.63687H18.8043V5.73687H18.9043ZM19.6874 5.73687H19.7874V5.63687H19.6874V5.73687ZM19.6874 11.6316V11.7316H19.7874V11.6316H19.6874ZM19.0559 11.6316L18.9735 11.6883L19.0033 11.7316H19.0559V11.6316ZM16.0243 7.2274L16.1067 7.1707L15.9243 6.90575V7.2274H16.0243ZM16.0243 11.6316V11.7316H16.1243V11.6316H16.0243ZM15.2411 11.6316H15.1411V11.7316H15.2411V11.6316ZM15.2411 5.73687V5.63687H15.1411V5.73687H15.2411ZM15.8727 5.73687L15.955 5.6801L15.9252 5.63687H15.8727V5.73687ZM18.9043 10.1327L18.822 10.1894L19.0043 10.4538V10.1327H18.9043ZM18.9043 5.83687H19.6874V5.63687H18.9043V5.83687ZM19.5874 5.73687V11.6316H19.7874V5.73687H19.5874ZM19.6874 11.5316H19.0559V11.7316H19.6874V11.5316ZM19.1382 11.5749L16.1067 7.1707L15.9419 7.2841L18.9735 11.6883L19.1382 11.5749ZM15.9243 7.2274V11.6316H16.1243V7.2274H15.9243ZM16.0243 11.5316H15.2411V11.7316H16.0243V11.5316ZM15.3411 11.6316V5.73687H15.1411V11.6316H15.3411ZM15.2411 5.83687H15.8727V5.63687H15.2411V5.83687ZM15.7904 5.79365L18.822 10.1894L18.9866 10.0759L15.955 5.6801L15.7904 5.79365ZM19.0043 10.1327V5.73687H18.8043V10.1327H19.0043Z" fill="#A2195E" mask="url(#path-2-outside-1_26_86)"/>
</svg>

