<svg width="14" height="20" viewBox="0 0 14 20" fill="none" xmlns="http://www.w3.org/2000/svg">
<path d="M11.125 0.427704H2.875C2.32799 0.427704 1.80339 0.645002 1.41659 1.0318C1.0298 1.41859 0.8125 1.94319 0.8125 2.4902V17.6152C0.8125 18.1622 1.0298 18.6868 1.41659 19.0736C1.80339 19.4604 2.32799 19.6777 2.875 19.6777H11.125C11.672 19.6777 12.1966 19.4604 12.5834 19.0736C12.9702 18.6868 13.1875 18.1622 13.1875 17.6152V2.4902C13.1875 1.94319 12.9702 1.41859 12.5834 1.0318C12.1966 0.645002 11.672 0.427704 11.125 0.427704ZM11.8125 17.6152C11.8125 17.7975 11.7401 17.9724 11.6111 18.1013C11.4822 18.2303 11.3073 18.3027 11.125 18.3027H2.875C2.69266 18.3027 2.5178 18.2303 2.38886 18.1013C2.25993 17.9724 2.1875 17.7975 2.1875 17.6152V2.4902C2.1875 2.30787 2.25993 2.133 2.38886 2.00407C2.5178 1.87514 2.69266 1.8027 2.875 1.8027H11.125C11.3073 1.8027 11.4822 1.87514 11.6111 2.00407C11.7401 2.133 11.8125 2.30787 11.8125 2.4902V17.6152ZM8.03125 4.20895C8.03125 4.41292 7.97077 4.6123 7.85745 4.78189C7.74414 4.95147 7.58308 5.08365 7.39464 5.1617C7.20621 5.23976 6.99886 5.26018 6.79881 5.22039C6.59877 5.1806 6.41502 5.08238 6.2708 4.93816C6.12657 4.79393 6.02836 4.61018 5.98856 4.41014C5.94877 4.2101 5.9692 4.00275 6.04725 3.81431C6.1253 3.62588 6.25748 3.46482 6.42707 3.3515C6.59666 3.23819 6.79604 3.1777 7 3.1777C7.2735 3.1777 7.53581 3.28635 7.7292 3.47975C7.9226 3.67315 8.03125 3.93545 8.03125 4.20895Z" fill="#A2195E"/>
</svg>

