<svg width="16" height="18" viewBox="0 0 16 18" fill="none" xmlns="http://www.w3.org/2000/svg">
<path d="M15.3614 5.07609L10.5489 0.263594C10.485 0.19977 10.4092 0.149161 10.3257 0.114656C10.2423 0.0801521 10.1528 0.0624292 10.0625 0.0625002H1.8125C1.44783 0.0625002 1.09809 0.207366 0.840228 0.465228C0.582366 0.723091 0.4375 1.07283 0.4375 1.4375V16.5625C0.4375 16.9272 0.582366 17.2769 0.840228 17.5348C1.09809 17.7926 1.44783 17.9375 1.8125 17.9375H14.1875C14.5522 17.9375 14.9019 17.7926 15.1598 17.5348C15.4176 17.2769 15.5625 16.9272 15.5625 16.5625V5.5625C15.5626 5.47219 15.5448 5.38275 15.5103 5.29929C15.4758 5.21583 15.4252 5.13999 15.3614 5.07609ZM10.75 2.40945L13.2155 4.875H10.75V2.40945ZM14.1875 16.5625H1.8125V1.4375H9.375V5.5625C9.375 5.74484 9.44743 5.9197 9.57636 6.04864C9.70529 6.17757 9.88016 6.25 10.0625 6.25H14.1875V16.5625ZM11.4375 9.6875C11.4375 9.86984 11.3651 10.0447 11.2361 10.1736C11.1072 10.3026 10.9323 10.375 10.75 10.375H5.25C5.06766 10.375 4.8928 10.3026 4.76386 10.1736C4.63493 10.0447 4.5625 9.86984 4.5625 9.6875C4.5625 9.50516 4.63493 9.33029 4.76386 9.20136C4.8928 9.07243 5.06766 9 5.25 9H10.75C10.9323 9 11.1072 9.07243 11.2361 9.20136C11.3651 9.33029 11.4375 9.50516 11.4375 9.6875ZM11.4375 12.4375C11.4375 12.6198 11.3651 12.7947 11.2361 12.9236C11.1072 13.0526 10.9323 13.125 10.75 13.125H5.25C5.06766 13.125 4.8928 13.0526 4.76386 12.9236C4.63493 12.7947 4.5625 12.6198 4.5625 12.4375C4.5625 12.2552 4.63493 12.0803 4.76386 11.9514C4.8928 11.8224 5.06766 11.75 5.25 11.75H10.75C10.9323 11.75 11.1072 11.8224 11.2361 11.9514C11.3651 12.0803 11.4375 12.2552 11.4375 12.4375Z" fill="#A2195E"/>
</svg>

