<svg width="46" height="47" viewBox="0 0 46 47" fill="none" xmlns="http://www.w3.org/2000/svg">
<path d="M35.441 54.9432C35.2932 52.4691 34.4602 49.9309 32.9472 47.3286C31.5721 44.9579 29.9605 43.095 28.1172 41.7396C27.7082 41.439 27.2843 41.163 26.8506 40.9116C26.0867 40.4681 25.3572 40.1477 24.6673 39.9555C23.3661 39.5711 22.1882 39.6154 21.1434 40.0886L20.7491 40.2857C20.1675 40.6159 19.6894 41.0546 19.3149 41.5967C18.5904 42.6268 18.2306 44.0363 18.2306 45.8303C18.2306 47.6243 18.5904 49.4577 19.3149 51.3207C19.6944 52.3015 20.1675 53.2872 20.7491 54.2828C22.4297 57.1807 24.4652 59.3197 26.8506 60.6997C29.236 62.0748 31.2665 62.2867 32.9472 61.3256C34.6327 60.3695 35.4706 58.5213 35.4706 55.781C35.4706 55.5001 35.4607 55.2241 35.441 54.9432ZM25.5987 54.5341L22.7451 49.6056L22.1094 48.5114L23.9181 47.4321L24.6328 48.6642L25.5987 50.3301L29.7831 48.0481L31.5918 51.1679L25.5987 54.5341Z" stroke="white" stroke-width="0.492852"/>
<path d="M16.0177 14.8742L10.8428 11.8875L0.985703 6.19505V43.7898L3.57318 42.3113L6.16065 46.7716L8.74813 45.298L11.3307 49.7584L13.9181 48.2846L16.5056 52.7451L16.7619 52.5972C16.1015 51.0644 15.6086 49.5662 15.2784 48.1072C14.9482 46.6434 14.7806 45.224 14.7806 43.8391C14.7806 43.4744 14.7856 43.1393 14.8004 42.8337C14.8151 42.5331 14.8546 42.2275 14.9088 41.9318L6.16065 36.88V32.9224L9.8324 35.0417L10.8428 35.6282L15.9438 38.5755C16.2592 37.9988 16.6288 37.501 17.0428 37.0821C17.4618 36.6632 17.9152 36.3133 18.4031 36.0373L13.5042 33.2083L10.8428 31.6706L6.16065 28.9648V25.0122L9.8324 27.1314L10.8428 27.713L16.0177 30.6997L22.0798 34.1989L23.2922 34.8988L26.8506 36.954C26.9344 37.0033 27.0182 37.0525 27.102 37.1068C27.5702 37.3828 28.0334 37.6932 28.4967 38.0333C28.8319 38.2748 29.167 38.5311 29.5021 38.8071C30.3794 39.5267 31.2173 40.3497 32.0206 41.2763V24.1152L16.0177 14.8742ZM26.8506 32.9964L26.3972 32.7352L25.7515 32.3606L13.5042 25.2931L10.8428 23.7554L6.16065 21.0546V17.0969L9.8324 19.2162L10.8428 19.8027L16.0177 22.7894L26.8506 29.0437V32.9964Z" stroke="white" stroke-width="0.492852"/>
<path d="M9.82747 19.2163L6.16065 21.0546V17.097L9.82747 19.2163Z" stroke="white" stroke-width="0.492852"/>
<path d="M26.8506 29.0436V32.9964L26.3972 32.7351L25.7515 32.3605L13.4992 25.2931L10.8427 23.7554L6.16065 21.0545L9.82747 19.2162L10.8427 19.8027L16.0177 22.7893L26.8506 29.0436Z" stroke="white" stroke-width="0.492852"/>
<path d="M41.8777 19.1866V36.3477L39.098 37.7326L32.0206 41.2762V24.1151L34.5292 22.8583L41.8777 19.1866Z" stroke="white" stroke-width="0.492852"/>
<path d="M41.8777 19.1867L34.5292 22.8584L32.0206 24.1152L16.0177 14.8742L10.8428 11.8875L0.985703 6.19506L10.8428 1.26655L41.8777 19.1867Z" stroke="white" stroke-width="0.492852"/>
<path d="M24.7658 37.0032C24.7116 37.2989 24.6722 37.6044 24.6574 37.9051C24.6574 38.0431 24.6476 38.1909 24.6426 38.3388L20.7491 40.2856C20.1675 40.6158 19.6895 41.0544 19.3149 41.5965C18.5904 42.6266 18.2306 44.0362 18.2306 45.8301C18.2306 47.6241 18.5904 49.4577 19.3149 51.3207L16.7619 52.5972C16.1015 51.0644 15.6086 49.5662 15.2784 48.1071C14.9482 46.6434 14.7806 45.2239 14.7806 43.839C14.7806 43.4743 14.7856 43.1392 14.8004 42.8336C14.8151 42.533 14.8546 42.2274 14.9088 41.9317L15.8107 41.4832L24.7658 37.0032Z" stroke="white" stroke-width="0.492852"/>
<path d="M45.3276 50.8525C45.3276 53.5928 44.4897 55.441 42.8042 56.3971L42.2768 56.6583L32.9471 61.3256C34.6327 60.3695 35.4705 58.5213 35.4705 55.781C35.4705 55.5001 35.4607 55.2241 35.441 54.9432C35.2931 52.4691 34.4602 49.9309 32.9471 47.3286C31.5721 44.958 29.9604 43.0951 28.1172 41.7397C27.7081 41.4391 27.2843 41.1631 26.8505 40.9117C26.0866 40.4682 25.3572 40.1478 24.6672 39.9556C23.3661 39.5712 22.1882 39.6155 21.1433 40.0886L24.6426 38.339L27.1019 37.1069C27.5701 37.3829 28.0334 37.6934 28.4967 38.0334C28.8318 38.2749 29.1669 38.5313 29.5021 38.8073C30.3794 39.5268 31.2172 40.3499 32.0206 41.2764L39.1029 37.7328C40.4828 38.9699 41.7199 40.5273 42.8042 42.4001C44.4897 45.2981 45.3276 48.1172 45.3276 50.8525Z" stroke="white" stroke-width="0.492852"/>
<path d="M9.8324 27.1315L6.16065 28.9649V25.0123L9.8324 27.1315Z" stroke="white" stroke-width="0.492852"/>
<path d="M22.0749 34.1989L18.3982 36.0373L13.5042 33.2083L10.8428 31.6706L6.16065 28.9648L9.8324 27.1314L10.8428 27.713L16.0177 30.6997L22.0749 34.1989Z" stroke="white" stroke-width="0.492852"/>
<path d="M9.82747 35.0417L6.16065 36.88V32.9224L9.82747 35.0417Z" stroke="white" stroke-width="0.492852"/>
<path d="M24.7658 37.0032L15.8058 41.4832L14.9088 41.9317L6.16065 36.88L9.82747 35.0416L10.8427 35.6281L15.9438 38.5754L22.1241 35.4803L24.7658 37.0032Z" stroke="white" stroke-width="0.492852"/>
<path d="M23.2923 34.8987L22.1291 35.4803L15.9438 38.5754C16.2593 37.9988 16.6289 37.501 17.0429 37.0821C17.4618 36.6631 17.9152 36.3132 18.4032 36.0372L22.0798 34.1988L23.2923 34.8987Z" stroke="white" stroke-width="0.492852"/>
</svg>
