<svg width="59" height="61" viewBox="0 0 59 61" fill="none" xmlns="http://www.w3.org/2000/svg">
<g clip-path="url(#clip0_1_83)">
<path d="M28.274 33.6706C27.02 32.1414 25.616 30.9335 24.056 30.0409C23.336 29.6304 22.652 29.3209 21.998 29.1246C20.48 28.6486 19.136 28.7438 17.966 29.4042C16.292 30.3503 15.458 32.2782 15.458 34.9023C15.458 37.5264 16.238 40.2278 17.81 42.9887C17.858 43.078 17.912 43.1732 17.966 43.2624C19.64 46.1245 21.668 48.2369 24.056 49.6055C26.126 50.7836 27.92 51.1049 29.456 50.5515C29.69 50.4682 29.924 50.3611 30.146 50.2362C31.178 49.6531 31.886 48.7308 32.276 47.4752C32.522 46.6958 32.648 45.7854 32.648 44.7441C32.648 43.1851 32.372 41.6083 31.826 40.0017" stroke="white" stroke-width="0.581899"/>
<path d="M44.9719 71.0322L35.9479 55.5974C36.7579 54.7584 37.3639 53.6814 37.7719 52.3605C37.8919 51.9737 37.9939 51.5691 38.0719 51.1585C38.2819 50.1767 38.3779 49.1354 38.3779 48.0227C38.3779 46.91 38.2879 45.7259 38.1079 44.5656C37.5799 41.1501 36.2779 37.6573 34.1899 34.0931C32.3299 30.9097 30.2119 28.2797 27.8299 26.2149C26.6419 25.1796 25.3819 24.2811 24.0559 23.5194C23.3539 23.1148 22.6699 22.7757 22.0039 22.496C19.2379 21.3297 16.7959 21.1988 14.6659 22.1092L14.6419 22.1211L13.9159 22.4841C13.3579 22.7995 12.8599 23.1743 12.4219 23.6027C11.1439 24.8285 10.3219 26.5362 9.96191 28.714C9.80591 29.6006 9.72791 30.5705 9.72791 31.6178C9.72791 32.2188 9.75191 32.8197 9.80591 33.4267C9.95591 35.2832 10.3399 37.1634 10.9639 39.0675C11.6479 41.1977 12.6319 43.3636 13.9159 45.5533C14.4799 46.5173 15.0619 47.4277 15.6739 48.2845C18.0919 51.7 20.8879 54.3122 24.0559 56.127C24.6739 56.484 25.2919 56.7875 25.9099 57.0433C26.6659 57.3647 27.4219 57.6146 28.1719 57.7871C29.5339 58.1084 30.7879 58.1322 31.9339 57.8645L40.9579 73.3052C41.4859 74.2037 42.1519 74.882 42.9679 75.3461C43.7779 75.8102 44.4439 75.8995 44.9719 75.602C45.4939 75.3045 45.7579 74.6916 45.7579 73.7693C45.7579 72.847 45.4939 71.9307 44.9719 71.0322ZM32.2759 47.4753C31.8859 48.7308 31.1779 49.6531 30.1459 50.2362C29.9239 50.3612 29.6899 50.4683 29.4559 50.5516C27.9199 51.105 26.1259 50.7836 24.0559 49.6055C21.6679 48.2369 19.6399 46.1246 17.9659 43.2625C17.9119 43.1732 17.8579 43.078 17.8099 42.9888C16.2379 40.2278 15.4579 37.5264 15.4579 34.9023C15.4579 32.2783 16.2919 30.3504 17.9659 29.4043C19.1359 28.7438 20.4799 28.6486 21.9979 29.1246C22.6519 29.321 23.3359 29.6304 24.0559 30.041C25.6159 30.9335 27.0199 32.1414 28.2739 33.6706C28.9399 34.4858 29.5639 35.3843 30.1459 36.378C30.8599 37.5978 31.4179 38.8057 31.8259 40.0017C32.3719 41.6083 32.6479 43.1851 32.6479 44.7441C32.6479 45.7854 32.5219 46.6958 32.2759 47.4753Z" stroke="white" stroke-width="0.581899"/>
<path d="M50.378 42.0724C50.378 43.6492 50.18 45.0951 49.772 46.4101C49.364 47.7311 48.758 48.8081 47.9479 49.6471L43.0939 52.0569H43.0879L35.9479 55.5974C36.7579 54.7584 37.3639 53.6814 37.7719 52.3604C37.8919 51.9736 37.9939 51.569 38.0719 51.1585C38.2819 50.1767 38.3779 49.1354 38.3779 48.0227C38.3779 46.91 38.2879 45.7258 38.1079 44.5655C37.5799 41.1501 36.2779 37.6573 34.1899 34.093C32.3299 30.9096 30.2119 28.2796 27.8299 26.2149C26.6419 25.1795 25.3819 24.281 24.0559 23.5194C23.3539 23.1148 22.6699 22.7756 22.0039 22.4959C19.2379 21.3297 16.7959 21.1988 14.6659 22.1092L16.0639 21.4189L26.2399 16.3612C28.9699 14.9807 32.2399 15.3853 36.0559 17.5691C40.0159 19.8362 43.3939 23.3587 46.1899 28.1428C48.986 32.9208 50.378 37.5621 50.378 42.0724Z" stroke="white" stroke-width="0.581899"/>
<path d="M57.758 67.819C57.758 68.7413 57.494 69.3542 56.972 69.6517L44.9721 75.602C45.4941 75.3045 45.7581 74.6916 45.7581 73.7693C45.7581 72.847 45.4941 71.9307 44.9721 71.0322L35.9481 55.5974L43.088 52.057H43.0941L47.9481 49.6471L56.972 65.0819C57.494 65.9804 57.758 66.8967 57.758 67.819Z" stroke="white" stroke-width="0.581899"/>
<path d="M14.6659 22.1091L14.6419 22.121L13.9159 22.484C13.3579 22.7994 12.8599 23.1742 12.4219 23.6026" stroke="white" stroke-width="0.581899"/>
</g>
<defs>
<clipPath id="clip0_1_83">
<rect width="59" height="76.1636" fill="white" transform="translate(0 0.801567)"/>
</clipPath>
</defs>
</svg>
