<svg width="43" height="47" viewBox="0 0 43 47" fill="none" xmlns="http://www.w3.org/2000/svg">
<path d="M28.7376 57.1108C28.7376 59.8445 28.2526 61.8508 27.2767 63.1177C26.9312 63.5601 26.5312 63.9178 26.0644 64.1845L25.6766 64.3784C23.6339 65.2634 21.1063 65.0876 18.0937 63.8511V70.8763L12.2626 67.5061V60.3112C9.68647 58.1594 7.46192 55.5894 5.58892 52.6132C3.71593 49.637 2.34617 46.1699 1.47333 42.2057L6.86796 42.8119C7.59533 45.9093 8.67433 48.5702 10.1109 50.7887C11.5414 53.0133 13.4264 54.7953 15.76 56.141C17.7542 57.2926 19.4394 57.7533 20.8274 57.523C22.2155 57.2866 22.9064 56.0864 22.9064 53.9103C22.9064 53.5648 22.8884 53.2193 22.8581 52.8799C22.7005 51.3039 22.1852 49.7886 21.3002 48.3399C20.3607 46.7882 18.3119 44.4788 15.166 41.4056C14.7538 41.0056 14.3175 40.5873 13.8629 40.157C13.6628 39.9691 13.4689 39.7872 13.281 39.6054C12.493 38.8538 11.7595 38.1203 11.0745 37.4051C8.38326 34.5986 6.44372 32.065 5.26172 29.7919C3.70393 26.8036 2.92802 23.8032 2.92802 20.7907C2.92802 17.166 3.94637 14.9414 5.98907 14.111C8.03176 13.2806 10.1229 13.3473 12.2626 14.2989V7.27371L15.6995 9.2558L16.2449 9.57099L18.0937 10.6378V17.6691C19.2696 18.5662 20.3486 19.536 21.3306 20.5907C22.3671 21.706 23.2944 22.9061 24.1066 24.1972C24.543 24.8882 24.9491 25.5853 25.3128 26.2884C26.2948 28.1432 27.0403 30.0465 27.5737 32.0104L23.5247 31.677L22.1791 31.5679C21.973 30.8284 21.7428 30.1314 21.4761 29.4646C20.9851 28.222 20.397 27.1067 19.6999 26.1248C19.0514 25.2155 18.2634 24.3851 17.336 23.6335C16.7299 23.1365 16.057 22.6819 15.3236 22.2576C13.1839 21.0271 11.5534 20.627 10.4381 21.0695C9.32278 21.512 8.75919 22.5425 8.75919 24.1609C8.75919 25.9975 9.4925 27.8704 10.9472 29.7737C12.2686 31.4952 14.4691 33.7682 17.5361 36.5868C17.7422 36.7807 17.9543 36.9747 18.1664 37.1626C18.2876 37.2778 18.4089 37.3869 18.5302 37.496C18.8272 37.7688 19.1241 38.0415 19.409 38.3204C22.3306 41.1329 24.5734 44.0908 26.1494 47.2064C26.5676 48.0429 26.9434 48.8733 27.2585 49.6977C28.2466 52.2374 28.7376 54.7044 28.7376 57.1108Z" stroke="white" stroke-width="0.606143"/>
<path d="M30.2166 4.57638L18.0937 10.6378L16.2449 9.571L15.6995 9.2558L12.2626 7.27372L24.3854 1.21229L30.2166 4.57638Z" stroke="white" stroke-width="0.606143"/>
<path d="M30.2172 4.57642V11.6076L23.7436 14.8444L21.3433 16.0446L18.0943 17.6691V10.6378L30.2172 4.57642Z" stroke="white" stroke-width="0.606143"/>
<path d="M40.8608 51.0494C40.8608 55.0075 39.8424 57.4321 37.7997 58.3171L30.2169 62.1115L27.7075 63.3662L26.0647 64.1845C26.5315 63.9178 26.9315 63.5601 27.277 63.1177C28.2529 61.8508 28.7379 59.8445 28.7379 57.1108C28.7379 54.7045 28.2468 52.2375 27.2588 49.6977C26.9436 48.8734 26.5679 48.0429 26.1497 47.2065C24.5737 44.0909 22.3309 41.1329 19.4093 38.3204C19.1244 38.0416 18.8274 37.7688 18.5304 37.4961C18.4092 37.387 18.2879 37.2778 18.1666 37.1627C17.9545 36.9748 17.7425 36.7808 17.5364 36.5868C14.4694 33.7683 12.2689 31.4952 10.9475 29.7738C9.4928 27.8705 8.75949 25.9975 8.75949 24.1609C8.75949 22.5425 9.32302 21.5121 10.4383 21.0696C11.5536 20.6271 13.1842 21.0272 15.3239 22.2576C16.0573 22.6819 16.7302 23.1365 17.3364 23.6336C18.2638 24.3852 19.0517 25.2156 19.7002 26.1248C20.3973 27.1068 20.9854 28.2221 21.4764 29.4647C21.7431 30.1314 21.9733 30.8285 22.1794 31.568L23.525 31.6771L27.574 32.0105L29.9684 30.8103C30.1927 31.0164 30.4169 31.2225 30.6532 31.4346C34.0052 34.4896 36.545 37.7264 38.2725 41.145C40 44.5697 40.8608 47.8672 40.8608 51.0494Z" stroke="white" stroke-width="0.606143"/>
<path d="M39.6966 25.9489L29.9681 30.8102L27.5737 32.0103C27.0403 30.0464 26.2948 28.1432 25.3128 26.2884C24.9491 25.5852 24.543 24.8882 24.1066 24.1972C23.2944 22.9061 22.3671 21.7059 21.3306 20.5906C20.3486 19.5359 19.2696 18.5661 18.0937 17.669L21.3427 16.0445L23.743 14.8444L30.2166 11.6076C32.6472 13.4563 34.6535 15.6324 36.2295 18.1357C37.8115 20.633 38.9632 23.2395 39.6966 25.9489Z" stroke="white" stroke-width="0.606143"/>
<path d="M12.2627 10.9773L5.98921 14.1111" stroke="white" stroke-width="0.606143"/>
<path d="M22.9061 53.9104C22.9061 56.0865 22.2152 57.2866 20.8271 57.523C19.4391 57.7534 17.7539 57.2927 15.7597 56.141C13.4261 54.7954 11.5411 53.0133 10.1106 50.7888C8.67403 48.5703 7.59503 45.9093 6.86766 42.8119L13.2807 39.6054C13.4686 39.7873 13.6625 39.9691 13.8625 40.157C14.3172 40.5874 14.7535 41.0056 15.1657 41.4057C18.3116 44.4788 20.3604 46.7882 21.2999 48.34C22.1849 49.7886 22.7002 51.304 22.8578 52.88C22.8881 53.2194 22.9061 53.5649 22.9061 53.9104Z" stroke="white" stroke-width="0.606143"/>
<path d="M13.281 39.6054L6.86796 42.8119L1.47333 42.2057L11.0745 37.4051C11.7595 38.1203 12.493 38.8538 13.281 39.6054Z" stroke="white" stroke-width="0.606143"/>
</svg>
