<svg width="27" height="26" viewBox="0 0 27 26" fill="none" xmlns="http://www.w3.org/2000/svg">
<path d="M5.17188 12.1875V21.2281H5.27188M5.17188 12.1875L21.7692 12.0433C21.788 12.0623 21.8029 12.0848 21.8131 12.1095C21.8232 12.1343 21.8283 12.1608 21.8281 12.1875V21.2281H21.7281M5.17188 12.1875C5.17172 12.1608 5.17685 12.1343 5.18696 12.1095C5.19707 12.0848 5.21196 12.0623 5.23079 12.0433M5.17188 12.1875L13.3558 3.91829M5.27188 21.2281V21.3281H10.3531V21.2281M5.27188 21.2281H10.3531M5.27188 21.2281L5.27188 12.1875L5.27188 12.1869C5.2718 12.1734 5.2744 12.1599 5.27953 12.1473C5.28464 12.1348 5.29216 12.1234 5.30166 12.1138L5.3015 12.114L5.23079 12.0433M10.3531 21.2281H10.4531V15.4375C10.4531 15.2759 10.5173 15.1209 10.6316 15.0066C10.7459 14.8923 10.9009 14.8281 11.0625 14.8281H15.9375C16.0991 14.8281 16.2541 14.8923 16.3684 15.0066C16.4827 15.1209 16.5469 15.2759 16.5469 15.4375V21.2281H16.6469M10.3531 21.2281V15.4375C10.3531 15.2494 10.4279 15.0689 10.5609 14.9359C10.6939 14.8029 10.8744 14.7281 11.0625 14.7281H15.9375C16.1256 14.7281 16.3061 14.8029 16.4391 14.9359C16.5721 15.0689 16.6469 15.2494 16.6469 15.4375V21.2281M16.6469 21.2281V21.3281H21.7281V21.2281M16.6469 21.2281H21.7281M21.7281 21.2281V12.1875V12.1869C21.7282 12.1734 21.7256 12.1599 21.7205 12.1473C21.7154 12.1349 21.7079 12.1235 21.6984 12.1139L21.6982 12.1137L13.5735 3.989L13.5732 3.98871C13.5636 3.97905 13.5522 3.97137 13.5397 3.96614C13.5271 3.9609 13.5136 3.95821 13.5 3.95821C13.4864 3.95821 13.4729 3.9609 13.4603 3.96614C13.4478 3.97137 13.4364 3.97905 13.4268 3.98871L13.4265 3.989L5.30178 12.1137L5.23079 12.0433M5.23079 12.0433L13.3558 3.91829M13.3558 3.91829C13.3747 3.89925 13.3971 3.88414 13.4219 3.87383C13.4466 3.86352 13.4732 3.85821 13.5 3.85821C13.5268 3.85821 13.5534 3.86352 13.5781 3.87383C13.6029 3.88414 13.6253 3.89925 13.6442 3.91829H13.3558ZM14.5762 2.98633L22.701 11.1112L14.5762 2.98633ZM14.5762 2.98633C14.4349 2.845 14.2671 2.73289 14.0824 2.65639M14.5762 2.98633L14.0824 2.65639M14.0824 2.65639C13.8978 2.5799 13.6999 2.54053 13.5 2.54053M14.0824 2.65639L13.5 2.54053M13.5 2.54053C13.3001 2.54053 13.1022 2.5799 12.9176 2.65639M13.5 2.54053L12.9176 2.65639M12.9176 2.65639C12.7329 2.73289 12.5651 2.845 12.4238 2.98634M12.9176 2.65639L12.4238 2.98634M12.4238 2.98634L4.29899 11.1112M12.4238 2.98634L4.29899 11.1112M4.29899 11.1112L4.29882 11.1113C4.15715 11.2524 4.04482 11.4201 3.96832 11.6048C3.8918 11.7896 3.85266 11.9877 3.85313 12.1876M4.29899 11.1112L22.7012 11.1113C22.8429 11.2524 22.9552 11.4201 23.0317 11.6048C23.1082 11.7896 23.1474 11.9877 23.1469 12.1878M3.85313 12.1876V12.1875H3.95313L3.85313 12.1878C3.85313 12.1877 3.85313 12.1877 3.85313 12.1876ZM3.85313 12.1876V21.9375C3.85313 22.1256 3.92787 22.3061 4.0609 22.4391C4.19393 22.5721 4.37437 22.6469 4.5625 22.6469H11.0625C11.2506 22.6469 11.4311 22.5721 11.5641 22.4391C11.6971 22.3061 11.7719 22.1256 11.7719 21.9375V16.1469M11.7719 16.1469H15.2281M11.7719 16.1469V16.0469H15.2281V16.1469M11.7719 16.1469H11.6719H15.3281H15.2281M15.2281 16.1469V21.9375C15.2281 22.1256 15.3029 22.3061 15.4359 22.4391C15.5689 22.5721 15.7494 22.6469 15.9375 22.6469H22.4375C22.6256 22.6469 22.8061 22.5721 22.9391 22.4391C23.0721 22.3061 23.1469 22.1256 23.1469 21.9375V12.1878M23.1469 12.1878V12.1875H23.0469L23.1469 12.1878Z" fill="#A2195E" stroke="#A2195E" stroke-width="0.2"/>
</svg>

