<svg width="27" height="26" viewBox="0 0 27 26" fill="none" xmlns="http://www.w3.org/2000/svg">
<path d="M21.625 14.0156H5.375C4.9979 14.0156 4.63624 14.1654 4.36958 14.4321C4.10293 14.6987 3.95312 15.0604 3.95312 15.4375V19.5C3.95312 19.8771 4.10293 20.2388 4.36958 20.5054C4.63624 20.7721 4.9979 20.9219 5.375 20.9219H21.625C22.0021 20.9219 22.3638 20.7721 22.6304 20.5054C22.8971 20.2388 23.0469 19.8771 23.0469 19.5V15.4375C23.0469 15.0604 22.8971 14.6987 22.6304 14.4321C22.3638 14.1654 22.0021 14.0156 21.625 14.0156ZM21.8281 19.5C21.8281 19.5539 21.8067 19.6055 21.7686 19.6436C21.7305 19.6817 21.6789 19.7031 21.625 19.7031H5.375C5.32113 19.7031 5.26946 19.6817 5.23137 19.6436C5.19328 19.6055 5.17188 19.5539 5.17188 19.5V15.4375C5.17188 15.3836 5.19328 15.332 5.23137 15.2939C5.26946 15.2558 5.32113 15.2344 5.375 15.2344H21.625C21.6789 15.2344 21.7305 15.2558 21.7686 15.2939C21.8067 15.332 21.8281 15.3836 21.8281 15.4375V19.5ZM21.625 5.07812H5.375C4.9979 5.07812 4.63624 5.22793 4.36958 5.49458C4.10293 5.76124 3.95312 6.1229 3.95312 6.5V10.5625C3.95312 10.7492 3.9899 10.9341 4.06136 11.1066C4.13281 11.2791 4.23755 11.4359 4.36958 11.5679C4.50162 11.7 4.65836 11.8047 4.83087 11.8761C5.00338 11.9476 5.18828 11.9844 5.375 11.9844H21.625C21.8117 11.9844 21.9966 11.9476 22.1691 11.8761C22.3416 11.8047 22.4984 11.7 22.6304 11.5679C22.7625 11.4359 22.8672 11.2791 22.9386 11.1066C23.0101 10.9341 23.0469 10.7492 23.0469 10.5625V6.5C23.0469 6.1229 22.8971 5.76124 22.6304 5.49458C22.3638 5.22793 22.0021 5.07812 21.625 5.07812ZM21.8281 10.5625C21.8281 10.6164 21.8067 10.668 21.7686 10.7061C21.7305 10.7442 21.6789 10.7656 21.625 10.7656H5.375C5.32113 10.7656 5.26946 10.7442 5.23137 10.7061C5.19328 10.668 5.17188 10.6164 5.17188 10.5625V6.5C5.17188 6.44613 5.19328 6.39446 5.23137 6.35637C5.26946 6.31828 5.32113 6.29688 5.375 6.29688H21.625C21.6789 6.29688 21.7305 6.31828 21.7686 6.35637C21.8067 6.39446 21.8281 6.44613 21.8281 6.5V10.5625Z" fill="#B0B0B0"/>
</svg>

