<svg width="27" height="26" viewBox="0 0 27 26" fill="none" xmlns="http://www.w3.org/2000/svg">
<path d="M23.7771 21.6328C22.1714 18.8581 19.6506 16.9112 16.7216 16.0855C18.1456 15.3616 19.2844 14.1792 19.9542 12.7289C20.624 11.2786 20.7859 9.64505 20.4137 8.09153C20.0415 6.53801 19.157 5.15512 17.9027 4.16583C16.6484 3.17654 15.0975 2.63852 13.5 2.63852C11.9025 2.63852 10.3516 3.17654 9.0973 4.16583C7.84301 5.15512 6.95846 6.53801 6.58627 8.09153C6.21408 9.64505 6.37596 11.2786 7.04579 12.7289C7.71563 14.1792 8.85438 15.3616 10.2784 16.0855C7.34937 16.9101 4.82859 18.8571 3.22289 21.6328C3.1788 21.7022 3.1492 21.7797 3.13586 21.8608C3.12252 21.9419 3.12572 22.0249 3.14527 22.1047C3.16483 22.1845 3.20033 22.2596 3.24963 22.3253C3.29894 22.3911 3.36104 22.4462 3.43219 22.4873C3.50335 22.5284 3.58209 22.5547 3.66367 22.5646C3.74526 22.5746 3.82801 22.5679 3.90694 22.545C3.98587 22.5221 4.05935 22.4834 4.12297 22.4314C4.18658 22.3794 4.23901 22.315 4.27711 22.2422C6.22813 18.8713 9.67516 16.8594 13.5 16.8594C17.3248 16.8594 20.7719 18.8713 22.7229 22.2422C22.761 22.315 22.8134 22.3794 22.877 22.4314C22.9406 22.4834 23.0141 22.5221 23.0931 22.545C23.172 22.5679 23.2547 22.5746 23.3363 22.5646C23.4179 22.5547 23.4967 22.5284 23.5678 22.4873C23.639 22.4462 23.7011 22.3911 23.7504 22.3253C23.7997 22.2596 23.8352 22.1845 23.8547 22.1047C23.8743 22.0249 23.8775 21.9419 23.8641 21.8608C23.8508 21.7797 23.8212 21.7022 23.7771 21.6328ZM7.60938 9.74999C7.60938 8.58494 7.95485 7.44604 8.60213 6.47734C9.2494 5.50863 10.1694 4.75361 11.2458 4.30776C12.3221 3.86192 13.5065 3.74526 14.6492 3.97255C15.7919 4.19984 16.8415 4.76087 17.6653 5.58469C18.4891 6.40851 19.0501 7.45812 19.2774 8.60079C19.5047 9.74346 19.3881 10.9279 18.9422 12.0042C18.4964 13.0806 17.7414 14.0006 16.7727 14.6479C15.8039 15.2951 14.6651 15.6406 13.5 15.6406C11.9383 15.6387 10.4411 15.0175 9.33678 13.9132C8.23248 12.8089 7.61126 11.3117 7.60938 9.74999Z" fill="#B0B0B0"/>
</svg>

