<svg width="27" height="26" viewBox="0 0 27 26" fill="none" xmlns="http://www.w3.org/2000/svg">
<path d="M14.1094 8.125V12.6547L17.8763 14.9145C18.015 14.9977 18.115 15.1326 18.1543 15.2896C18.1935 15.4465 18.1688 15.6126 18.0855 15.7513C18.0023 15.89 17.8674 15.99 17.7104 16.0293C17.5535 16.0685 17.3874 16.0438 17.2487 15.9605L13.1862 13.523C13.0959 13.4688 13.0213 13.3921 12.9695 13.3005C12.9177 13.2088 12.8905 13.1053 12.8906 13V8.125C12.8906 7.96339 12.9548 7.80839 13.0691 7.69411C13.1834 7.57983 13.3384 7.51563 13.5 7.51563C13.6616 7.51563 13.8166 7.57983 13.9309 7.69411C14.0452 7.80839 14.1094 7.96339 14.1094 8.125ZM13.5 3.45313C12.2452 3.44987 11.0023 3.69558 9.8431 4.17605C8.68395 4.65652 7.63164 5.36219 6.74711 6.25219C5.8757 7.13375 5.12211 7.97875 4.35938 8.8725V6.5C4.35938 6.33839 4.29517 6.18339 4.18089 6.06911C4.06661 5.95483 3.91162 5.89063 3.75 5.89063C3.58838 5.89063 3.43339 5.95483 3.31911 6.06911C3.20483 6.18339 3.14062 6.33839 3.14062 6.5V10.5625C3.14062 10.7241 3.20483 10.8791 3.31911 10.9934C3.43339 11.1077 3.58838 11.1719 3.75 11.1719H7.8125C7.97412 11.1719 8.12911 11.1077 8.24339 10.9934C8.35767 10.8791 8.42188 10.7241 8.42188 10.5625C8.42188 10.4009 8.35767 10.2459 8.24339 10.1316C8.12911 10.0173 7.97412 9.95313 7.8125 9.95313H5.04289C5.86859 8.96695 6.67398 8.05899 7.60938 7.10938C8.76685 5.95196 10.2397 5.1613 11.844 4.83619C13.4483 4.51109 15.1128 4.66595 16.6296 5.28143C18.1463 5.89691 19.4481 6.94572 20.3722 8.29681C21.2962 9.64789 21.8017 11.2413 21.8254 12.878C21.849 14.5148 21.3898 16.1221 20.5052 17.4994C19.6205 18.8766 18.3496 19.9626 16.8513 20.6217C15.3529 21.2807 13.6936 21.4836 12.0806 21.205C10.4676 20.9264 8.97248 20.1786 7.78203 19.0552C7.72427 18.9982 7.65572 18.9534 7.58041 18.9233C7.5051 18.8932 7.42453 18.8784 7.34344 18.8799C7.26235 18.8813 7.18236 18.8989 7.10816 18.9317C7.03396 18.9644 6.96705 19.0117 6.91135 19.0706C6.85564 19.1296 6.81226 19.199 6.78376 19.275C6.75525 19.3509 6.74219 19.4318 6.74534 19.5128C6.74849 19.5939 6.76779 19.6735 6.8021 19.7469C6.83641 19.8204 6.88505 19.8863 6.94516 19.9408C8.07819 21.0108 9.45596 21.7873 10.9582 22.2022C12.4604 22.6172 14.0413 22.6581 15.563 22.3214C17.0846 21.9846 18.5007 21.2805 19.6875 20.2705C20.8744 19.2604 21.7959 17.9752 22.3717 16.527C22.9474 15.0787 23.1599 13.5116 22.9905 11.9624C22.8211 10.4131 22.275 8.92894 21.4 7.63936C20.5249 6.34977 19.3474 5.29403 17.9703 4.56431C16.5932 3.8346 15.0585 3.4531 13.5 3.45313Z" fill="#B0B0B0"/>
</svg>

